<?xml version="1.0" standalone="no"?>
<!DOCTYPE svg PUBLIC "-//W3C//DTD SVG 20010904//EN"
 "http://www.w3.org/TR/2001/REC-SVG-20010904/DTD/svg10.dtd">
<svg version="1.0" xmlns="http://www.w3.org/2000/svg"
 width="376.000000pt" height="376.000000pt" viewBox="0 0 376.000000 376.000000"
 preserveAspectRatio="xMidYMid meet">
<metadata>
Created by potrace 1.14, written by Peter Selinger 2001-2017
</metadata>
<g transform="translate(0.000000,376.000000) scale(0.100000,-0.100000)"
fill="#000000" stroke="none">
<path d="M1715 3294 c-179 -29 -350 -115 -480 -241 -118 -113 -179 -214 -231
-378 -24 -78 -29 -108 -30 -222 -1 -73 2 -150 6 -170 23 -103 24 -101 -65
-135 -255 -99 -437 -292 -532 -563 -26 -75 -27 -91 -28 -245 0 -129 4 -179 18
-230 25 -91 96 -233 155 -310 301 -397 890 -452 1272 -120 19 16 38 30 41 30
3 0 19 -12 35 -26 44 -39 168 -120 230 -149 218 -103 526 -96 752 19 106 54
253 182 322 281 41 59 86 154 116 242 24 69 27 96 30 233 4 188 -10 252 -90
415 -48 97 -65 120 -143 197 -133 131 -190 171 -329 226 l-80 33 12 82 c17
110 12 294 -11 382 -76 297 -316 540 -618 626 -71 20 -284 34 -352 23z"/>
<path d="M694 3098 c-29 -13 -48 -51 -39 -77 9 -30 49 -54 75 -46 30 9 53 50
46 80 -8 32 -53 56 -82 43z"/>
<path d="M3022 3098 c-61 -10 -131 -64 -161 -123 -102 -197 122 -413 313 -301
123 72 155 220 74 338 -41 60 -148 100 -226 86z"/>
<path d="M602 2700 c-125 -29 -186 -178 -119 -292 37 -64 115 -104 184 -93 26
4 60 13 74 20 34 18 87 79 94 108 18 82 8 136 -36 190 -46 56 -126 83 -197 67z"/>
<path d="M2920 2283 c-15 -19 -19 -35 -15 -53 16 -68 104 -67 120 2 5 21 1 33
-19 52 -32 33 -59 33 -86 -1z"/>
<path d="M490 577 c-13 -7 -29 -25 -35 -41 -8 -25 -6 -31 19 -53 65 -56 147
28 84 87 -25 23 -34 24 -68 7z"/>
<path d="M1802 574 c-33 -23 -27 -83 9 -103 22 -12 29 -12 54 0 42 20 51 64
20 95 -28 28 -52 30 -83 8z"/>
</g>
</svg>
